<svg width="3951" height="1200" viewBox="0 0 3951 1200" fill="none" xmlns="http://www.w3.org/2000/svg">
<path d="M1792.58 129.816V1052.53H1677.92V244.453H1516.13V129.816H1792.58Z" fill="black"/>
<path fill-rule="evenodd" clip-rule="evenodd" d="M2442.88 129.816L2798.79 1052.53H2685.59L2602.06 835.553H2162.73L2079.21 1052.53H1965.99L2321.9 129.816H2442.88ZM2206.21 720.915H2557.88L2382.77 267.417L2206.21 720.915Z" fill="black"/>
<path d="M3089.42 129.816L3454.69 852.165L3820.62 129.816H3951V1052.53H3837V371.571L3817.94 366.999L3468.9 1052.53H3441.15L3092.12 366.999L3073.05 371.571V1052.53H2958.4V129.816H3089.42Z" fill="black"/>
<path d="M840.949 50.5786C1121.58 173.163 1267.77 491.622 1169.82 788.141C1065.91 1102.7 726.607 1273.48 411.979 1169.57C97.3508 1065.66 -73.4818 726.415 30.4242 411.858C128.279 115.619 434.916 -53.0965 733.097 15.0459L698.213 120.652C458.575 71.4357 214.031 208.779 135.488 446.555C50.8781 702.697 190.478 979.916 446.678 1064.53C702.877 1149.13 980.155 1009.55 1064.77 753.407C1143.4 515.352 1028.4 259.097 806.071 156.165L840.949 50.5786ZM753.58 135.436C771.671 141.41 789.181 148.346 806.071 156.165L635.934 671.226L528.107 635.616L698.213 120.652C716.724 124.454 735.206 129.368 753.58 135.436Z" fill="black"/>
</svg>
