<svg xmlns="http://www.w3.org/2000/svg" width="200" height="200" viewBox="0 0 200 200" fill="none"><rect width="200" height="200" rx="99" fill="black"></rect><path d="M126.384 41.4372C156.546 54.615 172.257 88.8493 161.73 120.725C150.562 154.54 114.094 172.899 80.2787 161.729C46.4631 150.559 28.1023 114.09 39.2699 80.2747C49.7872 48.4291 82.7439 30.2921 114.792 37.6174L111.043 48.9701C85.2868 43.6793 59.0037 58.4438 50.562 84.0047C41.4683 111.54 56.4722 141.341 84.0081 150.436C111.544 159.532 141.345 144.526 150.439 116.991C158.89 91.4004 146.531 63.8529 122.635 52.7878L126.384 41.4372ZM116.993 50.5593C118.938 51.2016 120.82 51.9472 122.635 52.7878L104.349 108.157L92.76 104.329L111.043 48.9701C113.032 49.3788 115.019 49.9071 116.993 50.5593Z" fill="white"></path></svg>